<svg xmlns="http://www.w3.org/2000/svg" width="1024" height="1024" viewBox="0 0 1024 1024"><polygon points="338,250 384,208 384,268 384,620 338,620" fill="#9CCBFF"/><polygon points="384,208 430,250 430,620 384,620 384,268" fill="#4D86F2"/><polygon points="458,168 512,118 512,186 512,620 458,620" fill="#B7DAFF"/><polygon points="512,118 566,168 566,620 512,620 512,186" fill="#5A93F7"/><polygon points="594,236 640,194 640,254 640,620 594,620" fill="#9CCBFF"/><polygon points="640,194 686,236 686,620 640,620 640,254" fill="#4D86F2"/></svg>
